<svg width="60" height="61" viewBox="0 0 60 61" fill="none" xmlns="http://www.w3.org/2000/svg">
<rect y="0.5" width="60" height="60" rx="30" fill="white"/>
<g clip-path="url(#clip0_218_4735)">
<path d="M21.5788 46.8053H18.4831V42.0071C18.4831 41.9208 18.4488 41.838 18.3877 41.777C18.3267 41.7159 18.2439 41.6816 18.1575 41.6816H14.261C14.1728 41.6815 14.0879 41.7151 14.0237 41.7757C13.9595 41.8362 13.921 41.919 13.916 42.0071V46.8053H13.3659V47.8112H46.6341V46.8053H46.084V42.0071C46.079 41.919 46.0404 41.8362 45.9763 41.7757C45.9121 41.7151 45.8271 41.6815 45.7389 41.6816H41.8587C41.8146 41.6794 41.7705 41.6862 41.7291 41.7016C41.6877 41.7169 41.6499 41.7406 41.6179 41.771C41.586 41.8015 41.5605 41.8381 41.5431 41.8787C41.5258 41.9193 41.5169 41.963 41.5169 42.0071V46.8053H34.2318V40.0215C34.2322 39.9601 34.2203 39.8992 34.1969 39.8425C34.1734 39.7858 34.1388 39.7344 34.0951 39.6913C34.0514 39.6482 33.9994 39.6143 33.9424 39.5916C33.8854 39.5689 33.8244 39.5579 33.763 39.5592H26.1946C26.0729 39.5592 25.9562 39.6076 25.8701 39.6937C25.784 39.7797 25.7357 39.8965 25.7357 40.0182V46.8021H20.5762V23.8919H10.9765V46.8053H13.3821V47.8112H10.459C10.3372 47.8112 10.2205 47.7628 10.1344 47.6767C10.0483 47.5907 9.99998 47.4739 9.99998 47.3522V23.6087C9.99901 23.5201 10.0161 23.4323 10.0503 23.3506C10.0844 23.2689 10.1349 23.195 10.1985 23.1334C10.26 23.0707 10.3335 23.0211 10.4146 22.9876C10.4957 22.954 10.5828 22.9372 10.6706 22.9381H20.5762V13.9245C20.594 13.7372 20.6769 13.5621 20.8105 13.4297C20.8865 13.3526 20.9773 13.2918 21.0774 13.2509C21.1776 13.2101 21.285 13.19 21.3932 13.192H38.5905C38.6958 13.1913 38.8001 13.2116 38.8974 13.2519C38.9947 13.2921 39.0829 13.3515 39.1569 13.4264L39.1927 13.4655C39.3239 13.6111 39.397 13.8 39.3978 13.9961V22.9316H49.3262C49.4139 22.9307 49.501 22.9475 49.5821 22.981C49.6632 23.0146 49.7367 23.0642 49.7982 23.1269C49.8618 23.1885 49.9123 23.2624 49.9464 23.3441C49.9806 23.4258 49.9977 23.5136 49.9967 23.6022V47.3652C49.9967 47.4869 49.9484 47.6037 49.8623 47.6898C49.7762 47.7758 49.6595 47.8242 49.5377 47.8242H46.6308V46.8183H49.0364V23.8919H39.3945V46.8053H38.3887V14.1946H21.5788V46.8053ZM15.3483 25.8873H12.8678C12.8483 25.8873 12.8288 25.9134 12.8288 25.9459V27.554C12.8288 27.5866 12.8483 27.6159 12.8678 27.6159H15.3483C15.3678 27.6159 15.3874 27.5898 15.3874 27.554V25.9297C15.3874 25.8971 15.3678 25.8711 15.3483 25.8711V25.8873ZM15.3483 37.0429H12.8678C12.8483 37.0429 12.8288 37.0722 12.8288 37.1015V38.7096C12.8288 38.7389 12.8483 38.7715 12.8678 38.7715H15.3483C15.3678 38.7715 15.3874 38.7422 15.3874 38.7096V37.0853C15.3874 37.056 15.3678 37.0267 15.3483 37.0267V37.0429ZM19.5345 37.0429H17.054C17.0312 37.0429 17.015 37.0722 17.015 37.1015V38.7096C17.015 38.7389 17.0312 38.7715 17.054 38.7715H19.5345C19.554 38.7715 19.5703 38.7422 19.5703 38.7096V37.0853C19.5703 37.056 19.5703 37.0267 19.5345 37.0267V37.0429ZM15.3483 33.306H12.8678C12.8483 33.306 12.8288 33.3353 12.8288 33.3678V34.9759C12.8288 35.0084 12.8483 35.0377 12.8678 35.0377H15.3483C15.3678 35.0377 15.3874 35.0117 15.3874 34.9759V33.3743C15.3874 33.3385 15.3678 33.3125 15.3483 33.3125V33.306ZM15.3483 29.5885H12.8678C12.8483 29.5885 12.8288 29.6146 12.8288 29.6504V31.2584C12.8288 31.2877 12.8483 31.3203 12.8678 31.3203H15.3483C15.3678 31.3203 15.3874 31.291 15.3874 31.2584V29.6504C15.3874 29.6146 15.3678 29.5885 15.3483 29.5885ZM19.5345 25.8873H17.054C17.0312 25.8873 17.015 25.9134 17.015 25.9459V27.554C17.015 27.5866 17.0312 27.6159 17.054 27.6159H19.5345C19.554 27.6159 19.5703 27.5898 19.5703 27.554V25.9297C19.5703 25.8971 19.5703 25.8711 19.5345 25.8711V25.8873ZM19.5345 33.3222H17.054C17.0312 33.3222 17.015 33.3515 17.015 33.3841V34.9922C17.015 35.0247 17.0312 35.054 17.054 35.054H19.5345C19.554 35.054 19.5703 35.028 19.5703 34.9922V33.3743C19.5703 33.3385 19.5703 33.3125 19.5345 33.3125V33.3222ZM19.5345 29.6048H17.054C17.0312 29.6048 17.015 29.6308 17.015 29.6666V31.2584C17.015 31.2877 17.0312 31.3203 17.054 31.3203H19.5345C19.554 31.3203 19.5703 31.291 19.5703 31.2584V29.6504C19.5703 29.6146 19.5703 29.5885 19.5345 29.5885V29.6048ZM44.6517 25.8873H47.1321C47.1517 25.8873 47.1712 25.9134 47.1712 25.9459V27.554C47.1712 27.5866 47.1517 27.6159 47.1321 27.6159H44.6517C44.6321 27.6159 44.6126 27.5898 44.6126 27.554V25.9297C44.6126 25.8971 44.6321 25.8711 44.6517 25.8711V25.8873ZM44.6517 37.0429H47.1321C47.1517 37.0429 47.1712 37.0722 47.1712 37.1015V38.7096C47.1712 38.7389 47.1517 38.7715 47.1321 38.7715H44.6517C44.6321 38.7715 44.6126 38.7422 44.6126 38.7096V37.0853C44.6126 37.056 44.6321 37.0267 44.6517 37.0267V37.0429ZM40.4655 37.0429H42.9459C42.9687 37.0429 42.985 37.0722 42.985 37.1015V38.7096C42.985 38.7389 42.985 38.7715 42.9459 38.7715H40.4655C40.4459 38.7715 40.4297 38.7422 40.4297 38.7096V37.0853C40.4297 37.056 40.4297 37.0267 40.4655 37.0267V37.0429ZM44.6517 33.3222H47.1321C47.1517 33.3222 47.1712 33.3515 47.1712 33.3841V34.9922C47.1712 35.0247 47.1517 35.054 47.1321 35.054H44.6517C44.6321 35.054 44.6126 35.028 44.6126 34.9922V33.3743C44.6126 33.3385 44.6321 33.3125 44.6517 33.3125V33.3222ZM44.6517 29.6048H47.1321C47.1517 29.6048 47.1712 29.6308 47.1712 29.6666V31.2584C47.1712 31.2877 47.1517 31.3203 47.1321 31.3203H44.6517C44.6321 31.3203 44.6126 31.291 44.6126 31.2584V29.6504C44.6126 29.6146 44.6321 29.5885 44.6517 29.5885V29.6048ZM40.4655 25.8873H42.9459C42.9687 25.8873 42.985 25.9134 42.985 25.9459V27.554C42.985 27.5866 42.985 27.6159 42.9459 27.6159H40.4655C40.4459 27.6159 40.4297 27.5898 40.4297 27.554V25.9297C40.4297 25.8971 40.4297 25.8711 40.4655 25.8711V25.8873ZM40.4655 33.3222H42.9459C42.9687 33.3222 42.985 33.3515 42.985 33.3841V34.9922C42.985 35.0247 42.985 35.054 42.9459 35.054H40.4655C40.4459 35.054 40.4297 35.028 40.4297 34.9922V33.3743C40.4297 33.3385 40.4297 33.3125 40.4655 33.3125V33.3222ZM40.4655 29.6048H42.9459C42.9687 29.6048 42.985 29.6308 42.985 29.6666V31.2584C42.985 31.2877 42.985 31.3203 42.9459 31.3203H40.4655C40.4459 31.3203 40.4297 31.291 40.4297 31.2584V29.6504C40.4297 29.6146 40.4297 29.5885 40.4655 29.5885V29.6048ZM23.9974 16.7207H26.6959C26.7161 16.7207 26.7355 16.7284 26.7501 16.7424C26.7646 16.7563 26.7732 16.7754 26.7741 16.7955V19.4974C26.7732 19.5175 26.7646 19.5366 26.7501 19.5505C26.7355 19.5645 26.7161 19.5723 26.6959 19.5722H23.9974C23.9775 19.5722 23.9585 19.5643 23.9444 19.5503C23.9304 19.5363 23.9225 19.5172 23.9225 19.4974V16.7955C23.9225 16.7757 23.9304 16.7566 23.9444 16.7426C23.9585 16.7286 23.9775 16.7207 23.9974 16.7207ZM33.278 16.7207H35.9765C35.9967 16.7207 36.0161 16.7284 36.0307 16.7424C36.0452 16.7563 36.0538 16.7754 36.0547 16.7955V19.4974C36.0538 19.5175 36.0452 19.5366 36.0307 19.5505C36.0161 19.5645 35.9967 19.5723 35.9765 19.5722H33.2747C33.2546 19.5723 33.2352 19.5645 33.2206 19.5505C33.206 19.5366 33.1974 19.5175 33.1966 19.4974V16.7955C33.1974 16.7754 33.206 16.7563 33.2206 16.7424C33.2352 16.7284 33.2546 16.7207 33.2747 16.7207H33.278ZM28.636 16.7207H31.3379C31.3577 16.7207 31.3768 16.7286 31.3908 16.7426C31.4049 16.7566 31.4127 16.7757 31.4127 16.7955V19.4974C31.4127 19.5172 31.4049 19.5363 31.3908 19.5503C31.3768 19.5643 31.3577 19.5722 31.3379 19.5722H28.636C28.6164 19.5714 28.5979 19.5633 28.584 19.5494C28.5701 19.5355 28.562 19.517 28.5612 19.4974V16.7955C28.562 16.7759 28.5701 16.7574 28.584 16.7435C28.5979 16.7296 28.6164 16.7215 28.636 16.7207ZM23.9974 22.567H26.6959C26.7167 22.567 26.7365 22.5753 26.7512 22.5899C26.7658 22.6046 26.7741 22.6244 26.7741 22.6452V25.3437C26.7741 25.354 26.772 25.3641 26.7681 25.3736C26.7642 25.3831 26.7584 25.3917 26.7512 25.399C26.7439 25.4062 26.7353 25.412 26.7258 25.4159C26.7164 25.4198 26.7062 25.4218 26.6959 25.4218H23.9974C23.9873 25.4219 23.9773 25.4198 23.968 25.4159C23.9587 25.4119 23.9502 25.4061 23.9433 25.3988C23.9363 25.3915 23.9308 25.3828 23.9272 25.3734C23.9237 25.3639 23.9221 25.3538 23.9225 25.3437V22.6321C23.9249 22.614 23.9338 22.5974 23.9476 22.5854C23.9614 22.5734 23.9791 22.5669 23.9974 22.567ZM33.278 22.567H35.9765C35.9929 22.5696 36.008 22.5773 36.0197 22.589C36.0314 22.6007 36.0391 22.6158 36.0416 22.6321V25.3307C36.0416 25.3514 36.0334 25.3713 36.0188 25.3859C36.0041 25.4006 35.9842 25.4088 35.9635 25.4088H33.2747C33.254 25.4088 33.2341 25.4006 33.2195 25.3859C33.2048 25.3713 33.1966 25.3514 33.1966 25.3307V22.6321C33.1966 22.6114 33.2048 22.5915 33.2195 22.5769C33.2341 22.5622 33.254 22.554 33.2747 22.554L33.278 22.567ZM28.636 22.567H31.3379C31.348 22.567 31.358 22.5691 31.3673 22.573C31.3766 22.577 31.385 22.5828 31.392 22.5901C31.399 22.5974 31.4044 22.606 31.408 22.6155C31.4116 22.625 31.4132 22.6351 31.4127 22.6452V25.3437C31.4132 25.3538 31.4116 25.3639 31.408 25.3734C31.4044 25.3828 31.399 25.3915 31.392 25.3988C31.385 25.4061 31.3766 25.4119 31.3673 25.4159C31.358 25.4198 31.348 25.4219 31.3379 25.4218H28.636C28.6159 25.421 28.5969 25.4124 28.5829 25.3978C28.5689 25.3833 28.5612 25.3639 28.5612 25.3437V22.6321C28.5612 22.612 28.5689 22.5926 28.5829 22.578C28.5969 22.5634 28.6159 22.5548 28.636 22.554V22.567ZM23.9974 34.263H26.6959C26.7167 34.263 26.7365 34.2712 26.7512 34.2859C26.7658 34.3005 26.7741 34.3204 26.7741 34.3411V37.0397C26.7741 37.0604 26.7658 37.0803 26.7512 37.0949C26.7365 37.1096 26.7167 37.1178 26.6959 37.1178H23.9974C23.9873 37.1178 23.9773 37.1158 23.968 37.1118C23.9587 37.1079 23.9502 37.102 23.9433 37.0947C23.9363 37.0874 23.9308 37.0788 23.9272 37.0693C23.9237 37.0599 23.9221 37.0498 23.9225 37.0397V34.3509C23.9221 34.3408 23.9237 34.3307 23.9272 34.3212C23.9308 34.3118 23.9363 34.3031 23.9433 34.2958C23.9502 34.2885 23.9587 34.2827 23.968 34.2788C23.9773 34.2748 23.9873 34.2727 23.9974 34.2728V34.263ZM33.278 34.263H35.9765C35.9967 34.2662 36.0149 34.2772 36.027 34.2936C36.0392 34.3101 36.0445 34.3306 36.0416 34.3509V37.0495C36.0416 37.0702 36.0334 37.09 36.0188 37.1047C36.0041 37.1193 35.9842 37.1276 35.9635 37.1276H33.2747C33.254 37.1276 33.2341 37.1193 33.2195 37.1047C33.2048 37.09 33.1966 37.0702 33.1966 37.0495V34.3509C33.1966 34.3302 33.2048 34.3103 33.2195 34.2956C33.2341 34.281 33.254 34.2728 33.2747 34.2728L33.278 34.263ZM28.636 34.263H31.3379C31.348 34.263 31.358 34.265 31.3673 34.269C31.3766 34.273 31.385 34.2788 31.392 34.2861C31.399 34.2934 31.4044 34.302 31.408 34.3115C31.4116 34.3209 31.4132 34.331 31.4127 34.3411V37.0397C31.4132 37.0498 31.4116 37.0599 31.408 37.0693C31.4044 37.0788 31.399 37.0874 31.392 37.0947C31.385 37.102 31.3766 37.1079 31.3673 37.1118C31.358 37.1158 31.348 37.1178 31.3379 37.1178H28.636C28.6159 37.117 28.5969 37.1084 28.5829 37.0938C28.5689 37.0792 28.5612 37.0599 28.5612 37.0397V34.3509C28.5612 34.3307 28.5689 34.3113 28.5829 34.2968C28.5969 34.2822 28.6159 34.2736 28.636 34.2728V34.263ZM23.9974 28.4166H26.6959C26.7161 28.4166 26.7355 28.4244 26.7501 28.4384C26.7646 28.4523 26.7732 28.4714 26.7741 28.4915V31.1933C26.7741 31.2034 26.772 31.2135 26.7681 31.2228C26.7641 31.2321 26.7583 31.2405 26.751 31.2475C26.7437 31.2545 26.7351 31.2599 26.7256 31.2635C26.7161 31.267 26.706 31.2686 26.6959 31.2682H23.9974C23.9775 31.2682 23.9585 31.2603 23.9444 31.2463C23.9304 31.2322 23.9225 31.2132 23.9225 31.1933V28.4915C23.9225 28.4717 23.9304 28.4526 23.9444 28.4386C23.9585 28.4245 23.9775 28.4166 23.9974 28.4166ZM33.278 28.4166H35.9765C35.9944 28.4196 36.0106 28.4288 36.0225 28.4424C36.0344 28.4561 36.0411 28.4734 36.0416 28.4915V31.1933C36.0417 31.2034 36.0396 31.2135 36.0357 31.2228C36.0317 31.2321 36.0259 31.2405 36.0186 31.2475C36.0113 31.2545 36.0026 31.2599 35.9932 31.2635C35.9837 31.267 35.9736 31.2686 35.9635 31.2682H33.2747C33.2646 31.2686 33.2545 31.267 33.2451 31.2635C33.2356 31.2599 33.227 31.2545 33.2197 31.2475C33.2124 31.2405 33.2066 31.2321 33.2026 31.2228C33.1986 31.2135 33.1966 31.2034 33.1966 31.1933V28.4915C33.1974 28.4714 33.206 28.4523 33.2206 28.4384C33.2352 28.4244 33.2546 28.4166 33.2747 28.4166H33.278ZM28.636 28.4166H31.3379C31.3577 28.4166 31.3768 28.4245 31.3908 28.4386C31.4049 28.4526 31.4127 28.4717 31.4127 28.4915V31.1933C31.4127 31.2132 31.4049 31.2322 31.3908 31.2463C31.3768 31.2603 31.3577 31.2682 31.3379 31.2682H28.636C28.6257 31.2691 28.6152 31.2678 28.6054 31.2645C28.5955 31.2611 28.5865 31.2558 28.5788 31.2487C28.5712 31.2417 28.5651 31.2331 28.5609 31.2236C28.5568 31.214 28.5546 31.2037 28.5547 31.1933V28.4915C28.5555 28.4719 28.5636 28.4533 28.5775 28.4395C28.5914 28.4256 28.6099 28.4174 28.6295 28.4166H28.636Z" fill="#6E7E1D"/>
</g>
<defs>
<clipPath id="clip0_218_4735">
<rect width="40" height="40" fill="white" transform="translate(10 10.5)"/>
</clipPath>
</defs>
</svg>
