<svg width="21" height="21" viewBox="0 0 21 21" fill="none" xmlns="http://www.w3.org/2000/svg">
<rect x="0.0869141" y="0.341309" width="20" height="20" rx="10" fill="#70C043"/>
<path d="M8.52728 13.9844C8.43554 13.9844 8.34634 13.9666 8.2597 13.9309C8.17305 13.8952 8.10424 13.8417 8.05328 13.7704L5.28569 11.0181C5.15317 10.8856 5.08691 10.7174 5.08691 10.5135C5.08691 10.3096 5.15317 10.1414 5.28569 10.0089C5.41821 9.87639 5.58386 9.81013 5.78263 9.81013C5.98141 9.81013 6.15215 9.87639 6.29487 10.0089L8.52728 12.2566L13.879 6.90493C14.0217 6.77241 14.1899 6.7036 14.3836 6.69851C14.5772 6.69341 14.7403 6.76222 14.8728 6.90493C15.0156 7.04764 15.0869 7.21838 15.0869 7.41716C15.0869 7.61594 15.0156 7.78158 14.8728 7.9141L9.01658 13.7704C8.95542 13.8417 8.88151 13.8952 8.79487 13.9309C8.70822 13.9666 8.61902 13.9844 8.52728 13.9844Z" fill="white"/>
</svg>
