<svg width="60" height="60" viewBox="0 0 60 60" fill="none" xmlns="http://www.w3.org/2000/svg">
<rect width="60" height="60" rx="30" fill="#6E7E1D"/>
<path d="M46.6667 46.6665H13.3333" stroke="white" stroke-width="2" stroke-linecap="round"/>
<path d="M13.3333 28.3335L26.8765 17.499C28.7027 16.0381 31.2973 16.0381 33.1235 17.499L46.6667 28.3335" stroke="white" stroke-width="2" stroke-linecap="round"/>
<path d="M35.8333 19.1667V15.8333C35.8333 15.3731 36.2065 15 36.6667 15H40.8333C41.2935 15 41.6667 15.3731 41.6667 15.8333V24.1667" stroke="white" stroke-width="2" stroke-linecap="round"/>
<path d="M16.6667 46.6668V25.8335" stroke="white" stroke-width="2" stroke-linecap="round"/>
<path d="M43.3333 46.6668V25.8335" stroke="white" stroke-width="2" stroke-linecap="round"/>
<path d="M35 46.6668V38.3335C35 35.9765 35 34.798 34.2678 34.0657C33.5355 33.3335 32.357 33.3335 30 33.3335C27.643 33.3335 26.4645 33.3335 25.7322 34.0657C25 34.798 25 35.9765 25 38.3335V46.6668" stroke="white" stroke-width="2"/>
<path d="M33.3333 25.8333C33.3333 27.6743 31.841 29.1667 30 29.1667C28.159 29.1667 26.6667 27.6743 26.6667 25.8333C26.6667 23.9924 28.159 22.5 30 22.5C31.841 22.5 33.3333 23.9924 33.3333 25.8333Z" stroke="white" stroke-width="2"/>
</svg>
