<svg width="60" height="61" viewBox="0 0 60 61" fill="none" xmlns="http://www.w3.org/2000/svg">
<rect y="0.5" width="60" height="60" rx="30" fill="#6E7E1D"/>
<path d="M47.3333 17.8332H37.3333V15.1665H38.6667C39.0667 15.1665 39.3333 14.8998 39.3333 14.4998V11.8332C39.3333 11.4332 39.0667 11.1665 38.6667 11.1665H21.3333C20.9333 11.1665 20.6667 11.4332 20.6667 11.8332V14.4998C20.6667 14.8998 20.9333 15.1665 21.3333 15.1665H22.6667V17.8332H12.6667C11.2 17.8332 10 19.0332 10 20.4998V30.4998C10 30.8998 10.2667 31.1665 10.6667 31.1665H12.6667V49.1665C12.6667 49.5665 12.9333 49.8332 13.3333 49.8332H35.3333V48.4998H14V31.1665H23.3333V29.8332H13.3333H11.3333V20.4998C11.3333 19.7665 11.9333 19.1665 12.6667 19.1665H23.3333H36.6667H47.3333C48.0667 19.1665 48.6667 19.7665 48.6667 20.4998V29.8332H46.6667H36.6667V31.1665H46V32.4998H47.3333V31.1665H49.3333C49.7333 31.1665 50 30.8998 50 30.4998V20.4998C50 19.0332 48.8 17.8332 47.3333 17.8332ZM22 12.4998H38V13.8332H22V12.4998ZM24 17.8332V15.1665H36V17.8332H24Z" fill="white"/>
<path d="M34.6667 27.833H25.3333C24.9333 27.833 24.6667 28.0997 24.6667 28.4997V32.4997C24.6667 32.8997 24.9333 33.1663 25.3333 33.1663H34.6667C35.0667 33.1663 35.3333 32.8997 35.3333 32.4997V28.4997C35.3333 28.0997 35.0667 27.833 34.6667 27.833ZM34 31.833H26V29.1663H34V31.833Z" fill="white"/>
<path d="M49.3333 33.833H37.3333C36.9333 33.833 36.6667 34.0997 36.6667 34.4997V49.1663C36.6667 49.5663 36.9333 49.833 37.3333 49.833H49.3333C49.7333 49.833 50 49.5663 50 49.1663V34.4997C50 34.0997 49.7333 33.833 49.3333 33.833ZM48.6667 35.1663V37.833H38V35.1663H48.6667ZM38 48.4997V39.1663H48.6667V48.4997H38Z" fill="white"/>
<path d="M41.3333 40.5H40V41.8333H41.3333V40.5Z" fill="white"/>
<path d="M44 40.5H42.6667V41.8333H44V40.5Z" fill="white"/>
<path d="M46.6667 40.5H45.3333V41.8333H46.6667V40.5Z" fill="white"/>
<path d="M41.3333 43.1665H40V44.4998H41.3333V43.1665Z" fill="white"/>
<path d="M44 43.1665H42.6667V44.4998H44V43.1665Z" fill="white"/>
<path d="M46.6667 43.1665H45.3333V44.4998H46.6667V43.1665Z" fill="white"/>
<path d="M41.3333 45.833H40V47.1663H41.3333V45.833Z" fill="white"/>
<path d="M44 45.833H42.6667V47.1663H44V45.833Z" fill="white"/>
<path d="M46.6667 45.833H45.3333V47.1663H46.6667V45.833Z" fill="white"/>
<path d="M40 35.833H38.6667V37.1663H40V35.833Z" fill="white"/>
<path d="M42 35.833H40.6667V37.1663H42V35.833Z" fill="white"/>
<path d="M44 35.833H42.6667V37.1663H44V35.833Z" fill="white"/>
<path d="M46 35.833H44.6667V37.1663H46V35.833Z" fill="white"/>
<path d="M48 35.833H46.6667V37.1663H48V35.833Z" fill="white"/>
</svg>
