<svg width="21" height="21" viewBox="0 0 21 21" fill="none" xmlns="http://www.w3.org/2000/svg">
<rect x="0.0869141" y="0.341309" width="20" height="20" rx="10" fill="#CB3A31"/>
<path d="M10.0869 11.4079L6.78691 14.7079C6.63135 14.8634 6.4508 14.9412 6.24524 14.9412C6.03969 14.9412 5.86469 14.8634 5.72024 14.7079C5.56469 14.5634 5.48691 14.3884 5.48691 14.1829C5.48691 13.9773 5.56469 13.8023 5.72024 13.6579L9.02024 10.3412L5.72024 7.04121C5.5758 6.89677 5.50357 6.71899 5.50357 6.50788C5.50357 6.29677 5.5758 6.11899 5.72024 5.97454C5.85357 5.8301 6.0258 5.75788 6.23691 5.75788C6.44802 5.75788 6.63135 5.8301 6.78691 5.97454L10.0869 9.29121L13.4036 5.95788C13.548 5.81343 13.723 5.74121 13.9286 5.74121C14.1341 5.74121 14.3147 5.81343 14.4702 5.95788C14.6147 6.11343 14.6869 6.29399 14.6869 6.49954C14.6869 6.7051 14.6147 6.8801 14.4702 7.02454L11.1536 10.3245L14.4536 13.6412C14.6091 13.7968 14.6869 13.9773 14.6869 14.1829C14.6869 14.3884 14.6091 14.5634 14.4536 14.7079C14.3091 14.8634 14.1314 14.9412 13.9202 14.9412C13.7091 14.9412 13.5369 14.8634 13.4036 14.7079L10.0869 11.4079Z" fill="white"/>
</svg>
